# xmcd CD database file
#
# Track frame offsets:
#	150
#	24555
#	50407
#	64555
#
# Disc length: 1231 seconds
#
# Revision: 0
# Processed by: cddbd v1.5.1PL2 Copyright (c) Steve Scherf et al.
# Submitted via: CDex 1.51
#
DISCID=2b04cd04
DTITLE=りんけんバンド - リッカ
DYEAR=1900
DGENRE=Other
TTITLE0=年中口説
TTITLE1=ふなやれ
TTITLE2=七月エイサーまちかんてぃ
TTITLE3=年中口説 okinawastephabilly mix
EXTD=
EXTT0=
EXTT1=
EXTT2=
EXTT3=
PLAYORDER=
